<svg width="433" height="433" viewBox="0 0 433 433" fill="none" xmlns="http://www.w3.org/2000/svg">
<rect width="433" height="433" rx="16.3396" fill="url(#paint0_linear_9_67)"/>
<g filter="url(#filter0_bd_9_67)">
<rect x="54.7377" y="60.4566" width="323.525" height="312.087" rx="14.4392" fill="white"/>
</g>
<g clip-path="url(#clip0_9_67)">
<path d="M86.3915 104.601V101.123C86.3915 97.3707 89.7835 94.3179 93.9529 94.3179C98.1223 94.3179 101.514 97.3707 101.514 101.123V104.601C101.531 104.607 101.549 104.613 101.566 104.619C102.645 105.03 103.672 105.524 104.643 106.095V101.123C104.643 95.8179 99.8476 91.5019 93.9529 91.5019C88.0582 91.5019 83.2626 95.8179 83.2626 101.123V106.095C84.2337 105.524 85.261 105.03 86.3401 104.619C86.3572 104.613 86.3744 104.607 86.3915 104.601Z" fill="#B6A7B4"/>
<path d="M93.9529 106.051C84.8808 106.051 77.5264 112.67 77.5264 120.835C77.5264 129 84.8808 135.619 93.9529 135.619C103.025 135.619 110.379 129 110.379 120.835C110.379 112.67 103.025 106.051 93.9529 106.051ZM92.6547 125.954L86.5213 120.434L88.7337 118.443L92.6547 121.971L98.4988 116.712L100.711 118.703L92.6547 125.954Z" fill="#B6A7B4"/>
</g>
<circle cx="329.243" cy="165.847" r="12.2547" fill="#B5A5B7"/>
<circle cx="329.243" cy="198.526" r="12.2547" fill="#B5A5B7"/>
<circle cx="329.243" cy="231.206" r="12.2547" fill="#B5A5B7"/>
<circle cx="329.243" cy="263.885" r="12.2547" fill="#B5A5B7"/>
<circle cx="329.243" cy="296.564" r="12.2547" fill="#B5A5B7"/>
<circle cx="330.06" cy="329.243" r="12.2547" fill="#B5A5B7"/>
<g clip-path="url(#clip1_9_67)">
<path d="M335.42 163.891L328.955 170.355C328.477 170.834 327.7 170.834 327.221 170.355L323.884 167.018C323.405 166.539 323.405 165.762 323.884 165.283C324.363 164.804 325.139 164.804 325.618 165.283L328.088 167.754L333.686 162.156C334.165 161.677 334.941 161.678 335.42 162.156C335.899 162.635 335.899 163.412 335.42 163.891Z" fill="white"/>
</g>
<g clip-path="url(#clip2_9_67)">
<path d="M335.42 196.57L328.955 203.034C328.477 203.513 327.7 203.513 327.221 203.034L323.884 199.697C323.405 199.218 323.405 198.441 323.884 197.963C324.363 197.484 325.139 197.484 325.618 197.962L328.088 200.433L333.686 194.835C334.165 194.356 334.941 194.357 335.42 194.835C335.899 195.314 335.899 196.091 335.42 196.57Z" fill="white"/>
</g>
<g clip-path="url(#clip3_9_67)">
<path d="M335.42 229.249L328.955 235.714C328.477 236.193 327.7 236.193 327.221 235.714L323.884 232.376C323.405 231.897 323.405 231.121 323.884 230.642C324.363 230.163 325.139 230.163 325.618 230.642L328.088 233.112L333.686 227.515C334.165 227.036 334.941 227.036 335.42 227.515C335.899 227.994 335.899 228.77 335.42 229.249Z" fill="white"/>
</g>
<g clip-path="url(#clip4_9_67)">
<path d="M335.42 261.929L328.955 268.393C328.477 268.872 327.7 268.872 327.221 268.393L323.884 265.055C323.405 264.577 323.405 263.8 323.884 263.321C324.363 262.842 325.139 262.842 325.618 263.321L328.088 265.791L333.686 260.194C334.165 259.715 334.941 259.715 335.42 260.194C335.899 260.673 335.899 261.449 335.42 261.929Z" fill="white"/>
</g>
<g clip-path="url(#clip5_9_67)">
<path d="M335.42 294.608L328.955 301.072C328.477 301.551 327.7 301.551 327.221 301.072L323.884 297.735C323.405 297.256 323.405 296.479 323.884 296C324.363 295.521 325.139 295.521 325.618 296L328.088 298.471L333.686 292.873C334.165 292.394 334.941 292.395 335.42 292.873C335.899 293.352 335.899 294.129 335.42 294.608Z" fill="white"/>
</g>
<g clip-path="url(#clip6_9_67)">
<path d="M336.237 327.287L329.772 333.751C329.293 334.23 328.517 334.23 328.038 333.751L324.7 330.414C324.222 329.935 324.222 329.158 324.7 328.68C325.179 328.201 325.956 328.201 326.435 328.679L328.905 331.15L334.502 325.552C334.981 325.073 335.758 325.074 336.237 325.552C336.716 326.031 336.716 326.808 336.237 327.287Z" fill="white"/>
</g>
<rect x="77.6132" y="157.677" width="146.24" height="16.3396" rx="8.16981" fill="#726C86" fill-opacity="0.5"/>
<rect x="77.6131" y="190.357" width="208.33" height="16.3396" rx="8.16981" fill="#726C86" fill-opacity="0.5"/>
<rect x="77.6131" y="223.036" width="101.306" height="16.3396" rx="8.16981" fill="#726C86" fill-opacity="0.5"/>
<rect x="77.6131" y="255.715" width="191.991" height="16.3396" rx="8.16981" fill="#726C86" fill-opacity="0.5"/>
<rect x="77.6131" y="288.394" width="49.8358" height="16.3396" rx="8.16981" fill="#726C86" fill-opacity="0.5"/>
<rect x="77.6131" y="321.074" width="137.253" height="16.3396" rx="8.16981" fill="#726C86" fill-opacity="0.5"/>
<defs>
<filter id="filter0_bd_9_67" x="6.60703" y="12.3259" width="419.786" height="408.348" filterUnits="userSpaceOnUse" color-interpolation-filters="sRGB">
<feFlood flood-opacity="0" result="BackgroundImageFix"/>
<feGaussianBlur in="BackgroundImageFix" stdDeviation="24.0654"/>
<feComposite in2="SourceAlpha" operator="in" result="effect1_backgroundBlur_9_67"/>
<feColorMatrix in="SourceAlpha" type="matrix" values="0 0 0 0 0 0 0 0 0 0 0 0 0 0 0 0 0 0 127 0" result="hardAlpha"/>
<feOffset dx="4.81307" dy="4.81307"/>
<feGaussianBlur stdDeviation="12.0327"/>
<feComposite in2="hardAlpha" operator="out"/>
<feColorMatrix type="matrix" values="0 0 0 0 0 0 0 0 0 0 0 0 0 0 0 0 0 0 0.5 0"/>
<feBlend mode="normal" in2="effect1_backgroundBlur_9_67" result="effect2_dropShadow_9_67"/>
<feBlend mode="normal" in="SourceGraphic" in2="effect2_dropShadow_9_67" result="shape"/>
</filter>
<linearGradient id="paint0_linear_9_67" x1="0" y1="216.5" x2="433" y2="216.5" gradientUnits="userSpaceOnUse">
<stop stop-color="#F27457"/>
<stop offset="1" stop-color="#CE4DA4"/>
</linearGradient>
<clipPath id="clip0_9_67">
<rect width="49.0189" height="44.117" fill="white" transform="translate(69.4434 91.5019)"/>
</clipPath>
<clipPath id="clip1_9_67">
<rect width="12.2547" height="12.2547" fill="white" transform="translate(323.524 160.128)"/>
</clipPath>
<clipPath id="clip2_9_67">
<rect width="12.2547" height="12.2547" fill="white" transform="translate(323.524 192.808)"/>
</clipPath>
<clipPath id="clip3_9_67">
<rect width="12.2547" height="12.2547" fill="white" transform="translate(323.524 225.487)"/>
</clipPath>
<clipPath id="clip4_9_67">
<rect width="12.2547" height="12.2547" fill="white" transform="translate(323.524 258.166)"/>
</clipPath>
<clipPath id="clip5_9_67">
<rect width="12.2547" height="12.2547" fill="white" transform="translate(323.524 290.845)"/>
</clipPath>
<clipPath id="clip6_9_67">
<rect width="12.2547" height="12.2547" fill="white" transform="translate(324.341 323.525)"/>
</clipPath>
</defs>
</svg>
